<svg width="64" height="64" viewBox="0 0 64 64" fill="none" xmlns="http://www.w3.org/2000/svg">
    <path d="M58.656 11.424C58.656 11.424 59.52 8.86401 57.664 7.07201C55.968 5.40801 53.76 6.30401 53.76 6.30401C51.808 7.26401 35.328 17.408 29.216 24.128C26.464 27.2 22.624 36.256 25.728 39.552C28.672 42.688 38.4 39.008 41.056 36.352C47.648 29.76 57.728 13.408 58.656 11.424V11.424ZM4.47998 56.48C12.064 51.488 9.15198 45.568 14.816 41.632C17.792 39.552 21.92 39.648 24.672 42.56C26.688 44.704 27.232 50.784 24.16 53.632C19.136 58.272 11.36 58.592 4.47998 56.48V56.48Z" fill="#F9F9F9"/>
</svg>
