<svg width="348" height="369" viewBox="0 0 348 369" fill="none" xmlns="http://www.w3.org/2000/svg">
<path d="M190.281 368.059C230.59 364.078 268.312 345.252 296.894 314.848C364.81 242.826 364.81 126.04 296.894 54.0171C228.979 -18.0057 118.853 -18.0057 50.9368 54.0171C-16.9789 126.04 -16.9789 242.826 50.9368 314.848C68.3473 333.352 89.2758 347.709 112.328 356.964C135.381 366.219 160.028 370.158 184.629 368.52C186.522 368.81 188.452 368.653 190.281 368.059ZM27.4228 163.296C31.1419 134.005 42.6319 106.437 60.5546 83.8037L155.48 184.433L136.558 204.5C118.261 188.822 97.8778 180.375 78.4509 174.842C67.1461 171.633 55.9109 169.309 45.6322 167.225L45.354 167.151C38.9711 165.86 33.0057 164.624 27.4402 163.296H27.4228ZM26.2228 191.331C30.849 192.364 35.5275 193.323 40.1364 194.282L40.3799 194.319C50.8672 196.477 61.285 198.616 71.6681 201.567C88.2426 206.289 104.035 212.928 117.966 224.216L60.572 285.08C39.6876 258.702 27.6114 225.742 26.2228 191.331ZM136.471 243.711C148.21 259.609 154.558 277.02 159.028 294.855C161.202 303.524 162.872 311.971 164.559 320.529L166.02 327.814C166.889 332.241 167.846 336.686 168.889 341.112C135.924 339.973 104.273 327.133 79.0075 304.649L136.471 243.711ZM195.482 339.545C193.988 333.749 192.665 327.906 191.516 322.023L190.177 315.254C188.473 306.604 186.612 297.179 184.246 287.736C179.011 266.932 170.994 244.633 155.028 224.031L173.916 204.002L268.824 304.649C247.907 323.279 222.511 335.362 195.482 339.545ZM192.351 184.433L213.43 162.097C232.805 179.471 253.084 189.025 271.954 195.776C279.728 198.579 287.555 200.977 294.755 203.208C297.52 204.057 300.199 204.868 302.755 205.68C308.843 207.635 314.425 209.516 319.521 211.6C315.069 238.68 303.945 264.03 287.277 285.08L192.351 184.433ZM310.217 179.176L301.486 176.465C294.383 174.331 287.326 172.032 280.32 169.567C263.902 163.665 247.484 155.919 231.953 142.455L287.259 83.7853C309.289 111.615 321.484 146.715 321.748 183.049C317.921 181.666 314.043 180.394 310.217 179.176ZM268.824 64.2165L213.5 122.886C200.804 106.416 193.482 89.0049 187.934 71.594C185.602 64.1602 183.433 56.67 181.429 49.1295V49.1111C180.559 46.0494 179.742 42.9877 178.855 39.8892C177.707 35.8316 176.524 31.7186 175.22 27.661C209.48 27.935 242.579 40.8614 268.824 64.2165ZM163.202 80.447C169.585 100.458 178.577 121.982 194.977 142.529L173.916 164.882L79.0075 64.2165C98.8576 46.5399 122.762 34.743 148.297 30.0218C150.262 35.4258 152.036 41.3278 153.863 47.8016L156.211 56.2857C158.298 63.9214 160.559 72.2026 163.202 80.447Z" fill="#666666" fill-opacity="0.4"/>
</svg>
